<svg width="157" height="128" viewBox="0 0 157 128" fill="none" xmlns="http://www.w3.org/2000/svg">
<path d="M19.5706 66.9126L36.7225 33.4665C40.23 26.6268 50.2338 26.6072 53.7696 33.433C57.3014 40.2512 67.2905 40.2414 70.8081 33.4162L84.2443 7.3466C89.2986 -2.45988 103.661 -2.44582 108.695 7.37054L139.23 66.9126C143.168 74.7453 137.305 83.8872 128.358 83.8654L30.1353 83.626C21.3431 83.6046 15.6386 74.5801 19.5706 66.9126Z" fill="#F3F4F6"/>
<path d="M14.8591 111.538L10.7244 100.913L6.78208 111.538H14.8591ZM22.0065 120.913H18.4969L15.7725 113.944H5.93272L3.33655 120.913H0.0512695L9.07377 98.0066H12.4231L22.0065 120.913Z" fill="#FFAC00"/>
<path d="M28.872 106.319C30.2181 104.746 31.8367 103.96 33.7278 103.96C35.95 103.96 37.6701 104.731 38.8881 106.272C40.106 107.804 40.715 109.876 40.715 112.491C40.715 115.21 40.0312 117.361 38.6637 118.944C37.3069 120.517 35.5921 121.304 33.5194 121.304C31.6818 121.304 30.1327 120.746 28.872 119.632V127.288H25.8431V104.335H28.872V106.319ZM28.872 116.975C30.1647 118.319 31.6498 118.991 33.3271 118.991C34.6306 118.991 35.6669 118.449 36.4361 117.366C37.2054 116.272 37.59 114.647 37.59 112.491C37.59 110.449 37.2267 108.902 36.5002 107.85C35.7737 106.788 34.7588 106.257 33.4553 106.257C31.778 106.257 30.2502 107.205 28.872 109.1V116.975Z" fill="#FFAC00"/>
<path d="M52.9811 121.304C50.4811 121.304 48.4725 120.543 46.9554 119.022C45.4383 117.491 44.6798 115.361 44.6798 112.632C44.6798 109.923 45.4116 107.804 46.8753 106.272C48.3497 104.731 50.2728 103.96 52.6446 103.96C55.0698 103.96 57.0036 104.715 58.4459 106.225C59.8989 107.736 60.6254 109.871 60.6254 112.632V113.335H47.8208C47.949 115.251 48.4886 116.673 49.4394 117.6C50.401 118.528 51.5815 118.991 52.9811 118.991C54.0388 118.991 54.9897 118.731 55.8337 118.21C56.6884 117.679 57.1371 116.929 57.1799 115.96H60.3049C60.0698 117.668 59.2739 118.986 57.917 119.913C56.5709 120.84 54.9256 121.304 52.9811 121.304ZM57.4363 111.022C57.1905 109.429 56.6403 108.236 55.7856 107.444C54.9309 106.652 53.8839 106.257 52.6446 106.257C51.4373 106.257 50.401 106.652 49.5356 107.444C48.6702 108.225 48.12 109.418 47.8849 111.022H57.4363Z" fill="#FFAC00"/>
<path d="M79.6223 120.913H75.8723L71.6415 114.444L67.4107 120.913H63.6607L69.9428 112.304L64.1575 104.335H67.9075L71.6415 110.132L75.3755 104.335H79.1255L73.3402 112.272L79.6223 120.913Z" fill="#FFAC00"/>
<path d="M93.9557 121.304C90.6331 121.304 87.9781 120.241 85.991 118.116C84.0144 115.981 83.0262 113.095 83.0262 109.46C83.0262 105.824 84.0144 102.944 85.991 100.819C87.9781 98.6837 90.6331 97.616 93.9557 97.616C96.5092 97.616 98.6833 98.2878 100.478 99.6316C102.273 100.975 103.283 102.746 103.507 104.944H100.302C100.174 103.496 99.5274 102.345 98.3628 101.491C97.209 100.637 95.7506 100.21 93.9878 100.21C91.6053 100.21 89.7196 101.012 88.3307 102.616C86.9418 104.21 86.2474 106.491 86.2474 109.46C86.2474 112.418 86.9365 114.699 88.3147 116.304C89.6929 117.908 91.5626 118.71 93.9237 118.71C95.7613 118.71 97.2464 118.272 98.3789 117.397C99.5113 116.522 100.152 115.272 100.302 113.647H103.507C103.283 116.085 102.3 117.97 100.558 119.304C98.8169 120.637 96.616 121.304 93.9557 121.304Z" fill="#F3F4F6"/>
<path d="M119.844 116.554V112.882H117.776C113.396 112.882 111.206 114.043 111.206 116.366C111.206 117.21 111.526 117.861 112.167 118.319C112.808 118.767 113.674 118.991 114.764 118.991C115.757 118.991 116.719 118.772 117.648 118.335C118.578 117.897 119.31 117.304 119.844 116.554ZM119.844 119.21C118.305 120.606 116.323 121.304 113.898 121.304C112.21 121.304 110.821 120.861 109.731 119.975C108.642 119.08 108.097 117.929 108.097 116.522C108.097 112.647 111.521 110.71 118.369 110.71H119.844C119.844 109.522 119.78 108.663 119.651 108.132C119.523 107.59 119.165 107.142 118.578 106.788C117.99 106.434 117.055 106.257 115.773 106.257C113.081 106.257 111.692 107.194 111.607 109.069H108.594C108.818 105.663 111.265 103.96 115.933 103.96C118.113 103.96 119.812 104.382 121.03 105.225C122.248 106.069 122.857 107.725 122.857 110.194V120.913H119.844V119.21Z" fill="#F3F4F6"/>
<path d="M137.815 107.022C137.388 106.897 136.773 106.835 135.972 106.835C134.434 106.835 133.114 107.621 132.014 109.194V120.913H128.985V104.335H132.014V106.647C133.285 104.856 134.759 103.96 136.437 103.96C136.864 103.96 137.324 104.001 137.815 104.085V107.022Z" fill="#F3F4F6"/>
<path d="M148.783 121.304C146.283 121.304 144.274 120.543 142.757 119.022C141.24 117.491 140.482 115.361 140.482 112.632C140.482 109.923 141.214 107.804 142.677 106.272C144.152 104.731 146.075 103.96 148.447 103.96C150.872 103.96 152.805 104.715 154.248 106.225C155.701 107.736 156.427 109.871 156.427 112.632V113.335H143.623C143.751 115.251 144.29 116.673 145.241 117.6C146.203 118.528 147.383 118.991 148.783 118.991C149.841 118.991 150.792 118.731 151.636 118.21C152.49 117.679 152.939 116.929 152.982 115.96H156.107C155.872 117.668 155.076 118.986 153.719 119.913C152.373 120.84 150.728 121.304 148.783 121.304ZM153.238 111.022C152.992 109.429 152.442 108.236 151.588 107.444C150.733 106.652 149.686 106.257 148.447 106.257C147.239 106.257 146.203 106.652 145.338 107.444C144.472 108.225 143.922 109.418 143.687 111.022H153.238Z" fill="#F3F4F6"/>
<path d="M19.5706 66.9126L36.7225 33.4665C40.23 26.6268 50.2338 26.6072 53.7696 33.433C57.3014 40.2512 67.2905 40.2414 70.8081 33.4162L84.2443 7.3466C89.2986 -2.45988 103.661 -2.44582 108.695 7.37054L139.23 66.9126C143.168 74.7453 137.305 83.8872 128.358 83.8654L30.1353 83.626C21.3431 83.6046 15.6386 74.5801 19.5706 66.9126Z" fill="#F3F4F6"/>
</svg>
