<svg width="17" height="18" viewBox="0 0 17 18" fill="none" xmlns="http://www.w3.org/2000/svg">
<path d="M1 8.54913C1 10.0325 1.43987 11.4825 2.26398 12.7159C3.08809 13.9493 4.25943 14.9106 5.62987 15.4782C7.00032 16.0459 8.50832 16.1944 9.96317 15.905C11.418 15.6156 12.7544 14.9013 13.8033 13.8524C14.8522 12.8035 15.5665 11.4672 15.8559 10.0123C16.1453 8.55745 15.9967 7.04945 15.4291 5.67901C14.8614 4.30856 13.9001 3.13722 12.6668 2.31311C11.4334 1.489 9.98336 1.04913 8.5 1.04913C6.40329 1.05702 4.39081 1.87515 2.88333 3.33247L1 5.2158M1 5.2158V1.04913M1 5.2158H5.16667M8.5 4.38247V8.54913L11.8333 10.2158" stroke="black" stroke-width="2" stroke-linecap="round" stroke-linejoin="round"/>
</svg>
