<svg width="22" height="23" viewBox="0 0 22 23" fill="none" xmlns="http://www.w3.org/2000/svg">
<path d="M6 20.2111V18.5491C6 18.0187 6.21071 17.51 6.58579 17.1349C6.96086 16.7598 7.46957 16.5491 8 16.5491H14C14.5304 16.5491 15.0391 16.7598 15.4142 17.1349C15.7893 17.51 16 18.0187 16 18.5491V20.2111M21 11.5491C21 17.072 16.5228 21.5491 11 21.5491C5.47715 21.5491 1 17.072 1 11.5491C1 6.02629 5.47715 1.54913 11 1.54913C16.5228 1.54913 21 6.02629 21 11.5491ZM14 9.54913C14 11.206 12.6569 12.5491 11 12.5491C9.34315 12.5491 8 11.206 8 9.54913C8 7.89228 9.34315 6.54913 11 6.54913C12.6569 6.54913 14 7.89228 14 9.54913Z" stroke="black" stroke-width="2" stroke-linecap="round" stroke-linejoin="round"/>
</svg>
