<svg width="90" height="63" viewBox="0 0 90 63" fill="none" xmlns="http://www.w3.org/2000/svg">
<path d="M0.925502 50.1841L13.4677 25.0997C16.0326 19.97 23.3478 19.9552 25.9333 25.0746C28.5159 30.1882 35.8204 30.1808 38.3927 25.062L48.2178 5.50991C51.9137 -1.84489 62.4163 -1.83435 66.0974 5.52786L88.4255 50.1841C91.3051 56.0586 87.0183 62.915 80.4761 62.8986L8.6509 62.7191C2.22161 62.703 -1.94977 55.9347 0.925502 50.1841Z" fill="white"/>
<path d="M0.925502 50.1841L13.4677 25.0997C16.0326 19.97 23.3478 19.9552 25.9333 25.0746C28.5159 30.1882 35.8204 30.1808 38.3927 25.062L48.2178 5.50991C51.9137 -1.84489 62.4163 -1.83435 66.0974 5.52786L88.4255 50.1841C91.3051 56.0586 87.0183 62.915 80.4761 62.8986L8.6509 62.7191C2.22161 62.703 -1.94977 55.9347 0.925502 50.1841Z" fill="white"/>
</svg>
