<svg width="90" height="63" viewBox="0 0 90 63" fill="none" xmlns="http://www.w3.org/2000/svg">
<path d="M0.94894 50.1841L13.4911 25.0997C16.056 19.97 23.3712 19.9552 25.9568 25.0746C28.5394 30.1882 35.8438 30.1808 38.4161 25.062L48.2413 5.50991C51.9371 -1.84489 62.4397 -1.83435 66.1208 5.52786L88.4489 50.1841C91.3286 56.0586 87.0418 62.915 80.4995 62.8986L8.67433 62.7191C2.24505 62.703 -1.92633 55.9347 0.94894 50.1841Z" fill="#262626"/>
<path d="M0.94894 50.1841L13.4911 25.0997C16.056 19.97 23.3712 19.9552 25.9568 25.0746C28.5394 30.1882 35.8438 30.1808 38.4161 25.062L48.2413 5.50991C51.9371 -1.84489 62.4397 -1.83435 66.1208 5.52786L88.4489 50.1841C91.3286 56.0586 87.0418 62.915 80.4995 62.8986L8.67433 62.7191C2.24505 62.703 -1.92633 55.9347 0.94894 50.1841Z" fill="#262626"/>
</svg>
