<svg width="115" height="96" viewBox="0 0 115 96" fill="none" xmlns="http://www.w3.org/2000/svg">
<path d="M14.2734 50.5L26.8156 25.4156C29.3805 20.2859 36.6957 20.2711 39.2812 25.3905C41.8639 30.5041 49.1683 30.4967 51.7406 25.3778L61.5658 5.82577C65.2616 -1.52904 75.7642 -1.51849 79.4453 5.84372L101.773 50.5C104.653 56.3744 100.366 63.2308 93.824 63.2145L21.9988 63.0349C15.5695 63.0189 11.3982 56.2505 14.2734 50.5Z" fill="#F3F4F6"/>
<path d="M10.8281 83.9687L7.80469 76L4.92188 83.9687H10.8281ZM16.0547 91H13.4883L11.4961 85.7734H4.30078L2.40234 91H0L6.59766 73.8203H9.04688L16.0547 91Z" fill="#FFAC00"/>
<path d="M21.075 80.0547C22.0594 78.875 23.243 78.2851 24.6258 78.2851C26.2508 78.2851 27.5086 78.8633 28.3992 80.0195C29.2898 81.168 29.7352 82.7226 29.7352 84.6836C29.7352 86.7226 29.2352 88.3359 28.2352 89.5234C27.243 90.7031 25.9891 91.293 24.4734 91.293C23.1297 91.293 21.9969 90.875 21.075 90.039V95.7812H18.8602V78.5664H21.075V80.0547ZM21.075 88.0469C22.0203 89.0547 23.1063 89.5586 24.3328 89.5586C25.2859 89.5586 26.0438 89.1523 26.6063 88.3398C27.1688 87.5195 27.45 86.3008 27.45 84.6836C27.45 83.1523 27.1844 81.9922 26.6531 81.2031C26.1219 80.4062 25.3797 80.0078 24.4266 80.0078C23.2 80.0078 22.0828 80.7187 21.075 82.1406V88.0469Z" fill="#FFAC00"/>
<path d="M38.7047 91.293C36.8766 91.293 35.4078 90.7226 34.2984 89.582C33.1891 88.4336 32.6344 86.8359 32.6344 84.789C32.6344 82.7578 33.1695 81.168 34.2398 80.0195C35.318 78.8633 36.7242 78.2851 38.4586 78.2851C40.232 78.2851 41.6461 78.8515 42.7008 79.9844C43.7633 81.1172 44.2945 82.7187 44.2945 84.789V85.3164H34.9313C35.025 86.7539 35.4195 87.8203 36.1148 88.5156C36.818 89.2109 37.6813 89.5586 38.7047 89.5586C39.4781 89.5586 40.1734 89.3633 40.7906 88.9726C41.4156 88.5742 41.7438 88.0117 41.775 87.2851H44.0602C43.8883 88.5664 43.3063 89.5547 42.3141 90.25C41.3297 90.9453 40.1266 91.293 38.7047 91.293ZM41.9625 83.582C41.7828 82.3867 41.3805 81.4922 40.7555 80.8984C40.1305 80.3047 39.3648 80.0078 38.4586 80.0078C37.5758 80.0078 36.818 80.3047 36.1852 80.8984C35.5523 81.4844 35.15 82.3789 34.9781 83.582H41.9625Z" fill="#FFAC00"/>
<path d="M58.1859 91H55.4437L52.35 86.1484L49.2562 91H46.5141L51.1078 84.543L46.8773 78.5664H49.6195L52.35 82.914L55.0805 78.5664H57.8227L53.5922 84.5195L58.1859 91Z" fill="#FFAC00"/>
<path d="M68.6672 91.293C66.2375 91.293 64.2961 90.4961 62.843 88.9023C61.3977 87.3008 60.675 85.1367 60.675 82.4101C60.675 79.6836 61.3977 77.5234 62.843 75.9297C64.2961 74.3281 66.2375 73.5273 68.6672 73.5273C70.5344 73.5273 72.1242 74.0312 73.4367 75.039C74.7492 76.0469 75.4875 77.375 75.6516 79.0234H73.3078C73.2141 77.9375 72.7414 77.0742 71.8898 76.4336C71.0461 75.793 69.9797 75.4726 68.6906 75.4726C66.9484 75.4726 65.5695 76.0742 64.5539 77.2773C63.5383 78.4726 63.0305 80.1836 63.0305 82.4101C63.0305 84.6289 63.5344 86.3398 64.5422 87.543C65.55 88.7461 66.9172 89.3476 68.6438 89.3476C69.9875 89.3476 71.0734 89.0195 71.9016 88.3633C72.7297 87.707 73.1984 86.7695 73.3078 85.5508H75.6516C75.4875 87.3789 74.7688 88.793 73.4953 89.793C72.2219 90.793 70.6125 91.293 68.6672 91.293Z" fill="#F3F4F6"/>
<path d="M87.5977 87.7305V84.9765H86.0859C82.8828 84.9765 81.2812 85.8476 81.2812 87.5898C81.2812 88.2226 81.5156 88.7109 81.9844 89.0547C82.4531 89.3906 83.0859 89.5586 83.8828 89.5586C84.6094 89.5586 85.3125 89.3945 85.9922 89.0664C86.6719 88.7383 87.207 88.293 87.5977 87.7305ZM87.5977 89.7226C86.4727 90.7695 85.0234 91.293 83.25 91.293C82.0156 91.293 81 90.9609 80.2031 90.2969C79.4062 89.625 79.0078 88.7617 79.0078 87.707C79.0078 84.8008 81.5117 83.3476 86.5195 83.3476H87.5977C87.5977 82.457 87.5508 81.8125 87.457 81.414C87.3633 81.0078 87.1016 80.6719 86.6719 80.4062C86.2422 80.1406 85.5586 80.0078 84.6211 80.0078C82.6523 80.0078 81.6367 80.7109 81.5742 82.1172H79.3711C79.5352 79.5625 81.3242 78.2851 84.7383 78.2851C86.332 78.2851 87.5742 78.6015 88.4648 79.2344C89.3555 79.8672 89.8008 81.1094 89.8008 82.9609V91H87.5977V89.7226Z" fill="#F3F4F6"/>
<path d="M100.739 80.582C100.427 80.4883 99.9773 80.4414 99.3914 80.4414C98.2664 80.4414 97.3016 81.0312 96.4969 82.2109V91H94.282V78.5664H96.4969V80.3008C97.4266 78.957 98.5047 78.2851 99.7312 78.2851C100.044 78.2851 100.38 78.3164 100.739 78.3789V80.582Z" fill="#F3F4F6"/>
<path d="M108.759 91.293C106.931 91.293 105.463 90.7226 104.353 89.582C103.244 88.4336 102.689 86.8359 102.689 84.789C102.689 82.7578 103.224 81.168 104.295 80.0195C105.373 78.8633 106.779 78.2851 108.513 78.2851C110.287 78.2851 111.701 78.8515 112.755 79.9844C113.818 81.1172 114.349 82.7187 114.349 84.789V85.3164H104.986C105.08 86.7539 105.474 87.8203 106.17 88.5156C106.873 89.2109 107.736 89.5586 108.759 89.5586C109.533 89.5586 110.228 89.3633 110.845 88.9726C111.47 88.5742 111.798 88.0117 111.83 87.2851H114.115C113.943 88.5664 113.361 89.5547 112.369 90.25C111.384 90.9453 110.181 91.293 108.759 91.293ZM112.017 83.582C111.838 82.3867 111.435 81.4922 110.81 80.8984C110.185 80.3047 109.42 80.0078 108.513 80.0078C107.63 80.0078 106.873 80.3047 106.24 80.8984C105.607 81.4844 105.205 82.3789 105.033 83.582H112.017Z" fill="#F3F4F6"/>
<path d="M14.2734 50.5L26.8156 25.4156C29.3805 20.2859 36.6957 20.2711 39.2812 25.3905C41.8639 30.5041 49.1683 30.4967 51.7406 25.3778L61.5658 5.82577C65.2616 -1.52904 75.7642 -1.51849 79.4453 5.84372L101.773 50.5C104.653 56.3744 100.366 63.2308 93.824 63.2145L21.9988 63.0349C15.5695 63.0189 11.3982 56.2505 14.2734 50.5Z" fill="#F3F4F6"/>
</svg>
